<?xml version="1.0" standalone="no"?>
<!DOCTYPE svg PUBLIC "-//W3C//DTD SVG 20010904//EN"
 "http://www.w3.org/TR/2001/REC-SVG-20010904/DTD/svg10.dtd">
<svg version="1.0" xmlns="http://www.w3.org/2000/svg"
 width="1280.000000pt" height="1024.000000pt" viewBox="0 0 1280.000000 1024.000000"
 preserveAspectRatio="xMidYMid meet">

<g transform="translate(0.000000,1024.000000) scale(0.100000,-0.100000)"
fill="#000000" stroke="none">
<path d="M1301 10203 c-71 -265 -171 -768 -213 -1073 -19 -140 -16 -633 5
-830 59 -541 177 -949 349 -1206 87 -130 350 -377 492 -463 298 -179 567 -118
1041 238 l80 60 6 -72 c4 -40 7 -138 8 -218 l1 -147 -83 -69 c-163 -138 -217
-240 -224 -428 -3 -65 -1 -121 6 -137 5 -15 42 -53 80 -84 l69 -57 -38 -51
c-191 -255 -250 -612 -153 -921 30 -94 79 -196 136 -280 95 -140 295 -301 449
-362 37 -14 68 -29 68 -32 0 -3 -41 -46 -91 -96 -102 -102 -171 -198 -189
-265 -15 -57 -5 -180 22 -268 28 -92 104 -167 206 -205 40 -15 90 -30 112 -33
21 -4 41 -13 45 -21 12 -32 5 -318 -9 -371 -29 -108 -93 -267 -250 -620 -55
-124 -112 -298 -122 -369 -9 -75 12 -175 50 -231 22 -33 48 -55 90 -77 54 -27
70 -30 172 -34 93 -2 135 2 241 24 227 47 538 160 708 257 33 19 161 102 284
184 l224 149 28 -35 c15 -19 84 -107 153 -195 l126 -160 -33 -24 c-60 -45
-135 -131 -147 -167 -7 -21 -10 -56 -6 -81 8 -61 47 -170 79 -220 30 -47 101
-100 147 -109 17 -4 33 -10 36 -15 2 -5 -20 -95 -50 -201 -30 -106 -60 -215
-67 -241 -10 -43 -19 -54 -83 -101 -101 -75 -336 -332 -489 -533 -8 -10 159
-13 827 -13 l836 0 0 48 c0 75 -37 412 -60 549 -12 69 -20 127 -17 129 10 10
136 -138 158 -186 14 -32 34 -57 51 -66 18 -9 90 -18 210 -25 410 -24 605 19
977 212 163 85 335 201 457 307 241 211 545 655 608 887 31 116 41 95 33 -69
-20 -389 -192 -958 -485 -1608 l-80 -178 2210 0 2209 0 -93 108 c-145 168
-467 483 -653 640 -375 317 -764 588 -1217 848 -209 120 -565 301 -734 374
l-101 44 -58 145 c-66 170 -126 275 -211 375 -134 157 -350 340 -484 410 -116
61 -364 133 -582 170 -35 6 -37 9 -47 59 -84 419 -168 1262 -159 1597 l3 125
68 7 c85 10 178 41 240 80 99 63 250 262 299 394 20 52 23 79 23 234 l1 175
70 56 c199 162 297 267 482 513 190 255 299 431 352 568 68 177 118 389 127
543 11 188 -17 269 -250 725 -181 354 -273 503 -396 640 -42 47 -136 158 -209
247 -144 177 -203 239 -269 284 -24 17 -43 33 -43 37 0 4 70 97 156 207 85
110 230 298 320 418 l165 217 -2614 0 -2614 0 -129 -152 c-228 -269 -286 -333
-297 -333 -11 0 -60 141 -123 353 l-39 132 -568 0 -568 0 -30 -66 c-73 -161
-112 -319 -151 -606 -12 -92 -24 -165 -27 -162 -3 3 -42 190 -86 417 l-81 412
-332 3 -331 2 -10 -37z m5143 -1245 c-101 -186 -175 -349 -194 -427 -25 -101
-85 -433 -99 -546 -14 -116 -31 -346 -31 -411 0 -55 25 -92 55 -81 8 4 43 45
78 93 162 226 333 449 378 494 83 83 403 298 428 288 4 -2 -25 -106 -66 -233
-40 -126 -88 -286 -106 -355 l-32 -125 0 -600 0 -600 44 -175 c134 -542 169
-658 263 -869 67 -151 90 -181 122 -158 14 11 20 35 27 113 22 247 79 575 126
718 23 71 35 90 92 150 160 166 371 266 535 252 130 -12 306 -85 413 -172 79
-65 199 -289 227 -424 43 -211 40 -421 -8 -525 -32 -71 -113 -189 -176 -258
-113 -123 -334 -179 -479 -121 -47 19 -71 13 -71 -16 0 -24 49 -57 99 -66 33
-7 33 -7 27 -53 -3 -25 -1 -153 4 -285 27 -652 142 -1469 260 -1850 61 -196
158 -440 208 -520 23 -36 24 -47 19 -120 -14 -196 -70 -339 -225 -576 -277
-426 -551 -660 -1014 -864 -251 -110 -378 -132 -709 -123 -119 4 -224 9 -233
13 -9 4 -28 28 -42 55 -13 27 -59 87 -102 133 -42 46 -105 116 -139 154 -69
77 -231 193 -340 244 l-67 32 -215 4 c-154 2 -230 8 -263 18 -89 29 -163 144
-175 274 -5 52 -3 58 31 99 20 24 56 59 79 77 l42 34 65 -70 c47 -51 72 -70
90 -70 14 0 59 18 100 40 41 22 131 69 200 104 161 82 280 161 575 383 261
195 380 298 581 504 349 357 487 613 488 904 1 106 -2 126 -22 167 -57 116
-201 190 -372 191 -75 1 -93 -3 -150 -30 -98 -46 -244 -156 -405 -303 -79 -73
-146 -138 -148 -145 -7 -16 -396 -388 -632 -603 -235 -215 -301 -265 -695
-533 -537 -365 -571 -386 -751 -462 -346 -147 -704 -217 -841 -164 -87 34
-128 104 -128 222 0 77 63 266 150 455 68 145 160 374 206 510 28 81 29 93 29
263 l0 177 60 0 c110 0 243 46 520 179 209 101 277 144 273 174 -5 36 -33 31
-126 -22 -198 -115 -517 -246 -632 -260 -133 -17 -314 25 -393 90 -68 56 -103
165 -95 297 3 60 9 77 42 128 21 33 95 115 165 184 114 114 150 142 381 296
149 100 260 180 267 195 8 15 13 67 13 136 0 99 3 121 31 200 42 118 80 192
121 232 33 33 115 91 129 91 4 0 22 -26 39 -58 155 -291 473 -518 809 -578
126 -22 314 -20 439 6 435 88 787 420 899 847 34 130 43 364 20 498 -75 426
-380 776 -793 909 -141 46 -181 51 -364 50 -156 0 -186 -3 -273 -27 -207 -55
-371 -145 -517 -284 -139 -132 -237 -280 -300 -451 -15 -40 -30 -73 -33 -73
-4 0 -40 16 -80 35 -290 138 -610 138 -893 1 -87 -42 -229 -139 -268 -183 -27
-31 -40 -28 -106 23 -53 41 -60 50 -66 92 -9 59 8 171 37 249 18 47 39 76 108
145 47 47 104 99 125 116 l40 30 -2 264 -2 264 202 160 c112 88 333 268 493
400 995 822 878 731 1241 958 221 138 387 234 461 267 59 27 493 189 586 220
78 25 293 68 349 69 l38 1 -56 -102z m-924 -2242 c447 -68 800 -384 917 -823
23 -88 26 -116 26 -268 0 -151 -3 -181 -26 -267 -74 -277 -240 -510 -468 -658
-556 -359 -1299 -156 -1588 435 -84 171 -113 301 -113 495 1 305 110 563 332
780 250 246 584 356 920 306z m-1565 -725 c44 -12 123 -43 175 -69 76 -38 95
-51 93 -67 -2 -11 -8 -63 -14 -115 -18 -154 5 -345 60 -504 12 -33 20 -60 19
-60 -31 -12 -156 -108 -179 -137 -34 -43 -96 -181 -129 -285 -18 -59 -20 -83
-15 -164 5 -71 3 -99 -7 -112 -7 -9 -71 -55 -143 -101 -71 -45 -183 -120 -247
-165 -65 -45 -126 -82 -137 -82 -32 0 -156 55 -237 105 -153 96 -272 230 -354
400 -73 151 -95 248 -94 425 0 149 10 206 55 328 117 320 406 561 746 622 86
16 319 5 408 -19z m3099 -2271 c82 -26 144 -72 174 -130 43 -86 26 -285 -39
-444 -32 -77 -109 -216 -119 -216 -8 0 -19 13 -286 355 -119 153 -212 281
-207 285 37 33 162 115 214 140 79 37 164 40 263 10z m-349 -431 c99 -127 213
-273 253 -324 l72 -94 -62 -78 c-70 -89 -418 -443 -435 -443 -11 0 -513 663
-513 678 0 11 486 492 497 492 4 -1 89 -105 188 -231z m-478 -646 c213 -283
251 -339 240 -351 -19 -24 -500 -382 -512 -382 -14 0 -468 617 -463 631 5 15
461 438 473 438 6 0 124 -151 262 -336z m-701 -266 c45 -62 144 -197 221 -302
77 -104 142 -195 146 -202 4 -7 -19 -27 -60 -54 -86 -54 -440 -239 -458 -239
-8 0 -92 98 -188 218 -217 271 -261 332 -251 342 5 4 77 54 159 110 178 123
248 173 293 212 18 15 38 28 45 27 7 0 48 -51 93 -112z"/>
<path d="M8052 6139 c-165 -28 -268 -148 -293 -344 -14 -112 -5 -160 32 -160
23 0 24 3 30 96 9 127 19 148 93 177 83 33 115 36 177 18 95 -27 153 -105 165
-223 8 -75 -6 -104 -94 -190 -53 -53 -64 -68 -55 -82 18 -29 40 -23 97 30 112
102 140 170 116 285 -30 145 -105 223 -246 254 -46 10 -104 4 -159 -16 -18 -7
-19 -6 -6 10 27 32 98 66 167 79 54 10 70 16 72 31 4 17 -22 48 -37 45 -3 -1
-30 -5 -59 -10z"/>
<path d="M5318 5752 c-87 -53 -70 -187 28 -221 52 -18 88 -9 131 34 27 27 33
41 33 74 0 50 -20 92 -54 115 -33 21 -103 20 -138 -2z"/>
<path d="M3424 5130 c-39 -15 -74 -68 -74 -111 0 -80 49 -129 130 -129 86 0
146 101 106 179 -30 58 -103 85 -162 61z"/>
</g>
</svg>
